<?xml version="1.0" encoding="UTF-8" standalone="no"?>
<!-- Created with Inkscape (http://www.inkscape.org/) -->

<svg
   xmlns:dc="http://purl.org/dc/elements/1.1/"
   xmlns:cc="http://creativecommons.org/ns#"
   xmlns:rdf="http://www.w3.org/1999/02/22-rdf-syntax-ns#"
   xmlns:svg="http://www.w3.org/2000/svg"
   xmlns="http://www.w3.org/2000/svg"
   xmlns:sodipodi="http://sodipodi.sourceforge.net/DTD/sodipodi-0.dtd"
   xmlns:inkscape="http://www.inkscape.org/namespaces/inkscape"
   width="88.164062"
   height="88.125"
   id="svg15214"
   version="1.1"
   inkscape:version="0.48.0 r9654"
   sodipodi:docname="kero man2.svg">
  <defs
     id="defs15216">
    <clipPath
       clipPathUnits="userSpaceOnUse"
       id="clipPath12121">
      <path
         inkscape:connector-curvature="0"
         d="m 123.602,487.826 80.576,0 0,-37.62 -80.576,0 0,37.62 z"
         id="path12123" />
    </clipPath>
    <clipPath
       clipPathUnits="userSpaceOnUse"
       id="clipPath12137">
      <path
         inkscape:connector-curvature="0"
         d="m 218.603,487.826 80.575,0 0,-37.62 -80.575,0 0,37.62 z"
         id="path12139" />
    </clipPath>
    <clipPath
       clipPathUnits="userSpaceOnUse"
       id="clipPath11747">
      <path
         inkscape:connector-curvature="0"
         d="m 105.205,366.183 4.31,0 0,-4.67 -4.31,0 0,4.67 z"
         id="path11749" />
    </clipPath>
    <clipPath
       clipPathUnits="userSpaceOnUse"
       id="clipPath11731">
      <path
         inkscape:connector-curvature="0"
         d="m 85.2046,366.183 4.3105,0 0,-4.67 -4.3105,0 0,4.67 z"
         id="path11733" />
    </clipPath>
    <clipPath
       clipPathUnits="userSpaceOnUse"
       id="clipPath11715">
      <path
         inkscape:connector-curvature="0"
         d="m 65.2046,366.183 4.3105,0 0,-4.67 -4.3105,0 0,4.67 z"
         id="path11717" />
    </clipPath>
    <clipPath
       clipPathUnits="userSpaceOnUse"
       id="clipPath11699">
      <path
         inkscape:connector-curvature="0"
         d="m 45.2046,366.183 4.3105,0 0,-4.67 -4.3105,0 0,4.67 z"
         id="path11701" />
    </clipPath>
    <clipPath
       clipPathUnits="userSpaceOnUse"
       id="clipPath11683">
      <path
         inkscape:connector-curvature="0"
         d="m 25.2046,366.183 4.3105,0 0,-4.67 -4.3105,0 0,4.67 z"
         id="path11685" />
    </clipPath>
    <clipPath
       clipPathUnits="userSpaceOnUse"
       id="clipPath12369">
      <path
         inkscape:connector-curvature="0"
         d="m 30.4229,527.497 5.9765,0 0,-4.407 -5.9765,0 0,4.407 z"
         id="path12371" />
    </clipPath>
    <clipPath
       clipPathUnits="userSpaceOnUse"
       id="clipPath12281">
      <path
         inkscape:connector-curvature="0"
         d="m 97.4873,550.507 6.2497,0 0,-6.25 -6.2497,0 0,6.25 z"
         id="path12283" />
    </clipPath>
    <clipPath
       clipPathUnits="userSpaceOnUse"
       id="clipPath12265">
      <path
         inkscape:connector-curvature="0"
         d="m 88.5806,575.191 3.9619,0 0,-3.962 -3.9619,0 0,3.962 z"
         id="path12267" />
    </clipPath>
    <clipPath
       clipPathUnits="userSpaceOnUse"
       id="clipPath12249">
      <path
         inkscape:connector-curvature="0"
         d="m 27.7373,560.469 3.9619,0 0,-3.962 -3.9619,0 0,3.962 z"
         id="path12251" />
    </clipPath>
    <clipPath
       clipPathUnits="userSpaceOnUse"
       id="clipPath12233">
      <path
         inkscape:connector-curvature="0"
         d="m 28.2373,554.757 6.25,0 0,-6.25 -6.25,0 0,6.25 z"
         id="path12235" />
    </clipPath>
    <clipPath
       clipPathUnits="userSpaceOnUse"
       id="clipPath12185">
      <path
         inkscape:connector-curvature="0"
         d="m 77.2139,489.496 3.3437,0 0,-3.344 -3.3437,0 0,3.344 z"
         id="path12187" />
    </clipPath>
    <clipPath
       clipPathUnits="userSpaceOnUse"
       id="clipPath12169">
      <path
         inkscape:connector-curvature="0"
         d="m 92.918,510.974 5.2744,0 0,-5.274 -5.2744,0 0,5.274 z"
         id="path12171" />
    </clipPath>
  </defs>
  <sodipodi:namedview
     id="base"
     pagecolor="#ffffff"
     bordercolor="#666666"
     borderopacity="1.0"
     inkscape:pageopacity="0.0"
     inkscape:pageshadow="2"
     inkscape:zoom="1.4"
     inkscape:cx="194.29618"
     inkscape:cy="69.750319"
     inkscape:document-units="px"
     inkscape:current-layer="layer1"
     showgrid="false"
     fit-margin-top="0"
     fit-margin-left="0"
     fit-margin-right="0"
     fit-margin-bottom="0"
     inkscape:window-width="1366"
     inkscape:window-height="706"
     inkscape:window-x="-8"
     inkscape:window-y="-8"
     inkscape:window-maximized="1" />
  <metadata
     id="metadata15219">
    <rdf:RDF>
      <cc:Work
         rdf:about="">
        <dc:format>image/svg+xml</dc:format>
        <dc:type
           rdf:resource="http://purl.org/dc/dcmitype/StillImage" />
        <dc:title></dc:title>
      </cc:Work>
    </rdf:RDF>
  </metadata>
  <g
     inkscape:label="Layer 1"
     inkscape:groupmode="layer"
     id="layer1"
     transform="translate(-170.17197,-814.40967)">
    <g
       id="g13923"
       transform="matrix(1.25,0,0,-1.25,173.17978,858.47217)">
      <path
         d="m 0,0 c 0,-18.15 14.71,-32.86 32.856,-32.86 18.15,0 32.861,14.71 32.861,32.86 0,18.147 -14.711,32.856 -32.861,32.856 C 14.71,32.856 0,18.147 0,0 z"
         style="fill:none;stroke:#292929;stroke-width:4.80900002;stroke-linecap:butt;stroke-linejoin:miter;stroke-miterlimit:4;stroke-opacity:1;stroke-dasharray:none"
         id="path13925"
         inkscape:connector-curvature="0" />
    </g>
    <g
       id="g13927"
       transform="matrix(1.25,0,0,-1.25,195.01216,855.34654)">
      <path
         d="M 0,0 C 0,-2.618 2.128,-4.746 4.745,-4.746 7.37,-4.746 9.497,-2.618 9.497,0 9.497,2.621 7.37,4.749 4.745,4.749 2.128,4.749 0,2.621 0,0"
         style="fill:#292929;fill-opacity:1;fill-rule:nonzero;stroke:none"
         id="path13929"
         inkscape:connector-curvature="0" />
    </g>
    <g
       id="g13931"
       transform="matrix(1.25,0,0,-1.25,221.90052,853.77242)">
      <path
         d="M 0,0 C 0,-1.922 1.561,-3.487 3.486,-3.487 5.408,-3.487 6.97,-1.922 6.97,0 6.97,1.925 5.408,3.49 3.486,3.49 1.561,3.49 0,1.925 0,0"
         style="fill:#292929;fill-opacity:1;fill-rule:nonzero;stroke:none"
         id="path13933"
         inkscape:connector-curvature="0" />
    </g>
    <g
       id="g13935"
       transform="matrix(1.25,0,0,-1.25,208.37027,849.38454)">
      <path
         d="m 0,0 c -0.553,-0.323 -6.014,5.412 -12.324,7.965 -6.313,2.554 0.375,7.889 2.703,5.559 C -7.291,11.194 2.518,1.482 0,0"
         style="fill:#292929;fill-opacity:1;fill-rule:nonzero;stroke:none"
         id="path13937"
         inkscape:connector-curvature="0" />
    </g>
    <g
       id="g13939"
       transform="matrix(1.25,0,0,-1.25,220.32577,848.61429)">
      <path
         d="m 0,0 c 0.391,-0.493 7.527,2.944 14.34,3.099 6.806,0.165 2.428,7.52 -0.569,6.16 C 10.766,7.903 -1.843,2.277 0,0"
         style="fill:#292929;fill-opacity:1;fill-rule:nonzero;stroke:none"
         id="path13941"
         inkscape:connector-curvature="0" />
    </g>
  </g>
</svg>
