<?xml version="1.0" encoding="UTF-8" standalone="no"?>
<!-- Created with Inkscape (http://www.inkscape.org/) -->

<svg
   xmlns:dc="http://purl.org/dc/elements/1.1/"
   xmlns:cc="http://creativecommons.org/ns#"
   xmlns:rdf="http://www.w3.org/1999/02/22-rdf-syntax-ns#"
   xmlns:svg="http://www.w3.org/2000/svg"
   xmlns="http://www.w3.org/2000/svg"
   xmlns:sodipodi="http://sodipodi.sourceforge.net/DTD/sodipodi-0.dtd"
   xmlns:inkscape="http://www.inkscape.org/namespaces/inkscape"
   width="87.890625"
   height="126.54858"
   id="svg9488"
   version="1.1"
   inkscape:version="0.48.0 r9654"
   sodipodi:docname="New document 5">
  <defs
     id="defs9490">
    <clipPath
       clipPathUnits="userSpaceOnUse"
       id="clipPath5383">
      <path
         inkscape:connector-curvature="0"
         d="m 285.473,170.267 20.588,0 0,-31.932 -20.588,0 0,31.932 z"
         id="path5385" />
    </clipPath>
  </defs>
  <sodipodi:namedview
     id="base"
     pagecolor="#ffffff"
     bordercolor="#666666"
     borderopacity="1.0"
     inkscape:pageopacity="0.0"
     inkscape:pageshadow="2"
     inkscape:zoom="0.35"
     inkscape:cx="-135.36165"
     inkscape:cy="66.131431"
     inkscape:document-units="px"
     inkscape:current-layer="layer1"
     showgrid="false"
     fit-margin-top="0"
     fit-margin-left="0"
     fit-margin-right="0"
     fit-margin-bottom="0"
     inkscape:window-width="469"
     inkscape:window-height="425"
     inkscape:window-x="50"
     inkscape:window-y="50"
     inkscape:window-maximized="0" />
  <metadata
     id="metadata9493">
    <rdf:RDF>
      <cc:Work
         rdf:about="">
        <dc:format>image/svg+xml</dc:format>
        <dc:type
           rdf:resource="http://purl.org/dc/dcmitype/StillImage" />
        <dc:title></dc:title>
      </cc:Work>
    </rdf:RDF>
  </metadata>
  <g
     inkscape:label="Layer 1"
     inkscape:groupmode="layer"
     id="layer1"
     transform="translate(-510.36165,-471.94503)">
    <g
       id="g4463"
       transform="matrix(1.25,0,0,-1.25,511.47309,585.50528)">
      <path
         d="M 0,0 C 0,0 33.298,97.06 68.011,0 68.011,0 37.546,-23.379 0,0"
         style="fill:#a2453a;fill-opacity:1;fill-rule:nonzero;stroke:none"
         id="path4465"
         inkscape:connector-curvature="0" />
    </g>
    <g
       id="g4467"
       transform="matrix(1.25,0,0,-1.25,527.97884,493.19328)">
      <path
         d="m 0,0 c 0,0 0.703,-11.58 -13.468,-34.251 0,0 4.858,-5.385 20.375,0.613 l 28.99,0 c 0,0 11.341,-4.845 19.662,-0.613 0,0 -10.541,20.662 -12.109,34.251"
         style="fill:#373535;fill-opacity:1;fill-rule:nonzero;stroke:#373535;stroke-width:1;stroke-linecap:butt;stroke-linejoin:miter;stroke-miterlimit:4;stroke-opacity:1;stroke-dasharray:none"
         id="path4469"
         inkscape:connector-curvature="0" />
    </g>
    <g
       id="g4471"
       transform="matrix(1.25,0,0,-1.25,580.85546,516.4294)">
      <path
         d="m 0,0 c 0,-11.543 -9.357,-20.902 -20.897,-20.902 -11.543,0 -20.897,9.359 -20.897,20.902 0,11.54 9.354,20.896 20.897,20.896 C -9.357,20.896 0,11.54 0,0"
         style="fill:#f5e3bb;fill-opacity:1;fill-rule:nonzero;stroke:none"
         id="path4473"
         inkscape:connector-curvature="0" />
    </g>
    <g
       id="g4475"
       transform="matrix(1.25,0,0,-1.25,582.29096,490.98253)">
      <path
         d="m 0,0 c 0,-8.417 -9.725,-15.234 -21.723,-15.234 -12.001,0 -21.727,6.817 -21.727,15.234 0,8.413 9.726,15.23 21.727,15.23 C -9.725,15.23 0,8.413 0,0"
         style="fill:#373535;fill-opacity:1;fill-rule:nonzero;stroke:none"
         id="path4477"
         inkscape:connector-curvature="0" />
    </g>
    <g
       id="g4479"
       transform="matrix(1.25,0,0,-1.25,576.00921,525.9679)">
      <path
         d="m 0,0 c 0,-1.633 -2.325,-2.951 -5.195,-2.951 -2.87,0 -5.199,1.318 -5.199,2.951 0,1.633 2.329,2.955 5.199,2.955 C -2.325,2.955 0,1.633 0,0"
         style="fill:#f6c589;fill-opacity:1;fill-rule:nonzero;stroke:none"
         id="path4481"
         inkscape:connector-curvature="0" />
    </g>
    <g
       id="g4483"
       transform="matrix(1.25,0,0,-1.25,546.48772,525.9679)">
      <path
         d="m 0,0 c 0,-1.633 -2.325,-2.951 -5.194,-2.951 -2.87,0 -5.196,1.318 -5.196,2.951 0,1.633 2.326,2.955 5.196,2.955 C -2.325,2.955 0,1.633 0,0"
         style="fill:#f6c589;fill-opacity:1;fill-rule:nonzero;stroke:none"
         id="path4485"
         inkscape:connector-curvature="0" />
    </g>
    <g
       id="g4487"
       transform="matrix(1.25,0,0,-1.25,560.42084,518.42028)">
      <path
         d="M 0,0 C 0,0 4.012,5.906 9.916,0"
         style="fill:none;stroke:#373535;stroke-width:1;stroke-linecap:butt;stroke-linejoin:miter;stroke-miterlimit:4;stroke-opacity:1;stroke-dasharray:none"
         id="path4489"
         inkscape:connector-curvature="0" />
    </g>
    <g
       id="g4491"
       transform="matrix(1.25,0,0,-1.25,549.77509,518.4814)">
      <path
         d="M 0,0 C 0,0 -3.955,5.942 -9.917,0.099"
         style="fill:none;stroke:#373535;stroke-width:1;stroke-linecap:butt;stroke-linejoin:miter;stroke-miterlimit:4;stroke-opacity:1;stroke-dasharray:none"
         id="path4493"
         inkscape:connector-curvature="0" />
    </g>
    <g
       id="g4495"
       transform="matrix(1.25,0,0,-1.25,545.36096,534.1234)">
      <path
         d="M 0,0 C 0,0 7.337,-6.109 14.993,0"
         style="fill:none;stroke:#373535;stroke-width:1;stroke-linecap:butt;stroke-linejoin:miter;stroke-miterlimit:4;stroke-opacity:1;stroke-dasharray:none"
         id="path4497"
         inkscape:connector-curvature="0" />
    </g>
    <g
       id="g4499"
       transform="matrix(1.25,0,0,-1.25,578.71434,510.01328)">
      <path
         d="M 0,0 C 0.549,0.478 1.217,0.899 1.9,1.158 2.776,1.494 3.655,1.3 4.283,0.606 5,-0.191 4.947,-1.165 4.996,-2.169 5.09,-4.073 4.707,-6.195 3.606,-7.791 3.37,-8.143 2.986,-8.493 2.521,-8.46 c -0.65,0.047 -1.47,0.795 -1.849,1.282"
         style="fill:#f5e3bb;fill-opacity:1;fill-rule:nonzero;stroke:none"
         id="path4501"
         inkscape:connector-curvature="0" />
    </g>
    <g
       id="g4503"
       transform="matrix(1.25,0,0,-1.25,530.66009,510.01328)">
      <path
         d="M 0,0 C -0.553,0.478 -1.218,0.899 -1.901,1.158 -2.776,1.494 -3.655,1.3 -4.283,0.606 -5,-0.191 -4.944,-1.165 -4.994,-2.169 c -0.097,-1.904 0.287,-4.026 1.387,-5.622 0.237,-0.352 0.62,-0.702 1.086,-0.669 0.65,0.047 1.472,0.795 1.849,1.282"
         style="fill:#f5e3bb;fill-opacity:1;fill-rule:nonzero;stroke:none"
         id="path4505"
         inkscape:connector-curvature="0" />
    </g>
    <path
       d="m 522.16034,511.09878 -3.72875,0 0,-4.89 3.72875,0 0,4.89 z"
       style="fill:#00b0f0;fill-opacity:1;fill-rule:nonzero;stroke:none"
       id="path5059"
       inkscape:connector-curvature="0" />
    <path
       d="m 588.18034,511.09878 3.72875,0 0,-4.89 -3.72875,0 0,4.89 z"
       style="fill:#00b0f0;fill-opacity:1;fill-rule:nonzero;stroke:none"
       id="path5061"
       inkscape:connector-curvature="0" />
    <g
       id="g5063"
       transform="matrix(1.25,0,0,-1.25,529.49559,505.81903)">
      <path
         d="m 0,0 c 0,0 4.206,-5.258 -0.526,-17.351 0,0 -12.092,0.527 -11.041,6.31 0,0 10e-4,11.041 11.567,11.041"
         style="fill:#0077bd;fill-opacity:1;fill-rule:nonzero;stroke:none"
         id="path5065"
         inkscape:connector-curvature="0" />
    </g>
    <g
       id="g5067"
       transform="matrix(1.25,0,0,-1.25,524.92584,506.95553)">
      <path
         d="m 0,0 c 0,0 1.981,-5.942 -0.495,-12.709 0,0 0.766,7.437 -1.6,11.775 0,0 0.706,0.552 2.095,0.934"
         style="fill:#edba54;fill-opacity:1;fill-rule:nonzero;stroke:none"
         id="path5069"
         inkscape:connector-curvature="0" />
    </g>
    <g
       id="g5071"
       transform="matrix(1.25,0,0,-1.25,515.79259,520.3954)">
      <path
         d="m 0,0 c 0,0 -0.961,0.616 0.099,2.489 0,0 -0.37,1.307 -0.937,0.124 0,0 -0.517,-0.912 -0.172,-2.637 0,0 0.616,-0.887 1.01,0.024"
         style="fill:#bec0c2;fill-opacity:1;fill-rule:nonzero;stroke:none"
         id="path5073"
         inkscape:connector-curvature="0" />
    </g>
    <g
       id="g5075"
       transform="matrix(1.25,0,0,-1.25,528.53671,505.8019)">
      <path
         d="m 0,0 c 0,0 0.647,2.119 2.002,0.059 0,0 3.946,-6.891 -1.118,-17.724 0,0 -1.001,-0.999 -1.472,0.296 0,0 5.181,10.069 0.588,17.369"
         style="fill:#737577;fill-opacity:1;fill-rule:nonzero;stroke:none"
         id="path5077"
         inkscape:connector-curvature="0" />
    </g>
    <g
       id="g5079"
       transform="matrix(1.25,0,0,-1.25,580.84559,505.81903)">
      <path
         d="m 0,0 c 0,0 -4.205,-5.258 0.526,-17.351 0,0 12.093,0.527 11.041,6.31 C 11.567,-11.041 11.566,0 0,0"
         style="fill:#0077bd;fill-opacity:1;fill-rule:nonzero;stroke:none"
         id="path5081"
         inkscape:connector-curvature="0" />
    </g>
    <g
       id="g5083"
       transform="matrix(1.25,0,0,-1.25,585.41596,506.95553)">
      <path
         d="m 0,0 c 0,0 -1.98,-5.942 0.496,-12.709 0,0 -0.767,7.437 1.6,11.775 0,0 -0.707,0.552 -2.096,0.934"
         style="fill:#edba54;fill-opacity:1;fill-rule:nonzero;stroke:none"
         id="path5085"
         inkscape:connector-curvature="0" />
    </g>
    <g
       id="g5087"
       transform="matrix(1.25,0,0,-1.25,594.54921,520.3954)">
      <path
         d="m 0,0 c 0,0 0.961,0.616 -0.099,2.489 0,0 0.37,1.307 0.937,0.124 0,0 0.517,-0.912 0.173,-2.637 0,0 -0.616,-0.887 -1.011,0.024"
         style="fill:#bec0c2;fill-opacity:1;fill-rule:nonzero;stroke:none"
         id="path5089"
         inkscape:connector-curvature="0" />
    </g>
    <g
       id="g5091"
       transform="matrix(1.25,0,0,-1.25,581.80509,505.8019)">
      <path
         d="m 0,0 c 0,0 -0.646,2.119 -2.002,0.059 0,0 -3.945,-6.891 1.119,-17.724 0,0 1,-0.999 1.471,0.296 0,0 -5.18,10.069 -0.588,17.369"
         style="fill:#737577;fill-opacity:1;fill-rule:nonzero;stroke:none"
         id="path5093"
         inkscape:connector-curvature="0" />
    </g>
    <g
       id="g5095"
       transform="matrix(1.25,0,0,-1.25,520.78709,506.14865)">
      <path
         d="M 0,0 C 0,0 24.448,43.77 56.191,-0.986 56.191,-0.986 28.786,49.686 0,0"
         style="fill:#0077bd;fill-opacity:1;fill-rule:nonzero;stroke:none"
         id="path5097"
         inkscape:connector-curvature="0" />
    </g>
    <g
       id="g5099"
       transform="matrix(1.25,0,0,-1.25,528.15459,520.47715)">
      <path
         d="m 0,0 c 1.35,-2.34 0.729,-5.227 -1.386,-6.446 -2.115,-1.219 -4.924,-0.312 -6.274,2.03 -1.349,2.34 -0.729,5.225 1.387,6.444 C -4.159,3.249 -1.35,2.341 0,0"
         style="fill:#f5e3bb;fill-opacity:1;fill-rule:nonzero;stroke:none"
         id="path5101"
         inkscape:connector-curvature="0" />
    </g>
    <g
       id="g5103"
       transform="matrix(1.25,0,0,-1.25,522.95871,527.0019)">
      <path
         d="m 0,0 c -1.247,-1.205 -0.419,-7.435 -0.299,-8.936 0.278,-3.491 1.609,-7.378 3.324,-10.4 0.558,-0.981 1.626,-3.169 2.997,-3.157 1.632,0.015 3.4,3.68 3.648,4.96 0.262,1.355 0.24,3.063 0.096,4.427 C 9.217,-7.918 5.853,-2.848 2.795,1.179 2.795,1.179 1.116,1.077 0,0"
         style="fill:#f5e3bb;fill-opacity:1;fill-rule:nonzero;stroke:none"
         id="path5105"
         inkscape:connector-curvature="0" />
    </g>
    <g
       id="g5107"
       transform="matrix(1.25,0,0,-1.25,524.03834,548.34953)">
      <path
         d="m 0,0 c 0,0 8.284,2.944 8.258,8.498 0,0 5.172,-9.384 1.142,-13.747 0,0 -6.122,-4.34 -9.758,5.018"
         style="fill:#a2453a;fill-opacity:1;fill-rule:nonzero;stroke:none"
         id="path5109"
         inkscape:connector-curvature="0" />
    </g>
    <g
       id="g5111"
       transform="matrix(1.25,0,0,-1.25,580.99209,520.47715)">
      <path
         d="M 0,0 C -1.35,-2.34 -0.729,-5.227 1.387,-6.446 3.502,-7.665 6.311,-6.758 7.66,-4.416 9.01,-2.076 8.389,0.809 6.273,2.028 4.159,3.249 1.35,2.341 0,0"
         style="fill:#f5e3bb;fill-opacity:1;fill-rule:nonzero;stroke:none"
         id="path5113"
         inkscape:connector-curvature="0" />
    </g>
    <g
       id="g5115"
       transform="matrix(1.25,0,0,-1.25,586.18871,527.0019)">
      <path
         d="m 0,0 c 1.247,-1.205 0.419,-7.435 0.3,-8.936 -0.279,-3.491 -1.61,-7.378 -3.324,-10.4 -0.559,-0.981 -1.627,-3.169 -2.998,-3.157 -1.632,0.015 -3.401,3.68 -3.648,4.96 -0.263,1.355 -0.24,3.063 -0.097,4.427 0.549,5.188 3.914,10.258 6.971,14.285 0,0 1.68,-0.102 2.796,-1.179"
         style="fill:#f5e3bb;fill-opacity:1;fill-rule:nonzero;stroke:none"
         id="path5117"
         inkscape:connector-curvature="0" />
    </g>
    <g
       id="g5119"
       transform="matrix(1.25,0,0,-1.25,585.10834,548.34953)">
      <path
         d="m 0,0 c 0,0 -8.283,2.944 -8.258,8.498 0,0 -5.172,-9.384 -1.141,-13.747 0,0 6.122,-4.34 9.758,5.018"
         style="fill:#a2453a;fill-opacity:1;fill-rule:nonzero;stroke:none"
         id="path5121"
         inkscape:connector-curvature="0" />
    </g>
    <g
       transform="matrix(1.25,0,0,-1.25,161.37909,763.43253)"
       id="g5379">
      <g
         id="g5381" />
      <g
         id="g5387">
        <g
           clip-path="url(#clipPath5383)"
           id="g5389"
           style="opacity:0.5">
          <g
             transform="translate(301.2207,168.5693)"
             id="g5391">
            <path
               d="m 0,0 c 0,0 -20.081,-22.111 -14.891,-25.722 5.189,-3.61 10.83,-4.512 12.41,-4.512 0,0 14.666,40.613 2.481,30.234"
               style="fill:#ffffff;fill-opacity:1;fill-rule:nonzero;stroke:none"
               id="path5393"
               inkscape:connector-curvature="0" />
          </g>
        </g>
      </g>
    </g>
  </g>
</svg>
