<?xml version="1.0" encoding="UTF-8" standalone="no"?>
<!-- Created with Inkscape (http://www.inkscape.org/) -->

<svg
   xmlns:dc="http://purl.org/dc/elements/1.1/"
   xmlns:cc="http://creativecommons.org/ns#"
   xmlns:rdf="http://www.w3.org/1999/02/22-rdf-syntax-ns#"
   xmlns:svg="http://www.w3.org/2000/svg"
   xmlns="http://www.w3.org/2000/svg"
   xmlns:sodipodi="http://sodipodi.sourceforge.net/DTD/sodipodi-0.dtd"
   xmlns:inkscape="http://www.inkscape.org/namespaces/inkscape"
   width="202.77783"
   height="336.0853"
   id="svg14755"
   version="1.1"
   inkscape:version="0.48.0 r9654"
   sodipodi:docname="boy4.svg">
  <defs
     id="defs14757">
    <clipPath
       clipPathUnits="userSpaceOnUse"
       id="clipPath7761">
      <path
         inkscape:connector-curvature="0"
         d="m 65.4224,340.111 44.2146,0 0,-34.965 -44.2146,0 0,34.965 z"
         id="path7763" />
    </clipPath>
    <clipPath
       clipPathUnits="userSpaceOnUse"
       id="clipPath7745">
      <path
         inkscape:connector-curvature="0"
         d="m 28.3276,361.119 12.958,0 0,-19.75 -12.958,0 0,19.75 z"
         id="path7747" />
    </clipPath>
    <clipPath
       clipPathUnits="userSpaceOnUse"
       id="clipPath7729">
      <path
         inkscape:connector-curvature="0"
         d="m 100.062,315.989 12.958,0 0,-19.75 -12.958,0 0,19.75 z"
         id="path7731" />
    </clipPath>
    <clipPath
       clipPathUnits="userSpaceOnUse"
       id="clipPath7713">
      <path
         inkscape:connector-curvature="0"
         d="m 52.957,296.711 24.291,0 0,-22.194 -24.291,0 0,22.194 z"
         id="path7715" />
    </clipPath>
    <clipPath
       clipPathUnits="userSpaceOnUse"
       id="clipPath7657">
      <path
         inkscape:connector-curvature="0"
         d="m 133.11,424.287 29.033,0 0,-4.869 -29.033,0 0,4.869 z"
         id="path7659" />
    </clipPath>
    <clipPath
       clipPathUnits="userSpaceOnUse"
       id="clipPath7641">
      <path
         inkscape:connector-curvature="0"
         d="m 76.4307,424.287 29.0323,0 0,-4.869 -29.0323,0 0,4.869 z"
         id="path7643" />
    </clipPath>
    <clipPath
       clipPathUnits="userSpaceOnUse"
       id="clipPath7593">
      <path
         inkscape:connector-curvature="0"
         d="m 137.682,427.852 9.13,0 0,-4.521 -9.13,0 0,4.521 z"
         id="path7595" />
    </clipPath>
    <clipPath
       clipPathUnits="userSpaceOnUse"
       id="clipPath7577">
      <path
         inkscape:connector-curvature="0"
         d="m 80.7075,429.57 9.1304,0 0,-4.521 -9.1304,0 0,4.521 z"
         id="path7579" />
    </clipPath>
    <clipPath
       clipPathUnits="userSpaceOnUse"
       id="clipPath7553">
      <path
         inkscape:connector-curvature="0"
         d="m 86.4658,410.079 8.6817,0 0,-8.43 -8.6817,0 0,8.43 z"
         id="path7555" />
    </clipPath>
    <clipPath
       clipPathUnits="userSpaceOnUse"
       id="clipPath7529">
      <path
         inkscape:connector-curvature="0"
         d="m 136.333,410.079 8.684,0 0,-8.43 -8.684,0 0,8.43 z"
         id="path7531" />
    </clipPath>
    <clipPath
       clipPathUnits="userSpaceOnUse"
       id="clipPath7501">
      <path
         inkscape:connector-curvature="0"
         d="m 103.102,342.456 33.608,0 0,-4.51 -33.608,0 0,4.51 z"
         id="path7503" />
    </clipPath>
    <clipPath
       clipPathUnits="userSpaceOnUse"
       id="clipPath8531">
      <path
         inkscape:connector-curvature="0"
         d="m 712.07,274.921 10.911,0 0,-40.443 -10.911,0 0,40.443 z"
         id="path8533" />
    </clipPath>
    <clipPath
       clipPathUnits="userSpaceOnUse"
       id="clipPath8491">
      <path
         inkscape:connector-curvature="0"
         d="m 753.27,357.945 29.032,0 0,-4.868 -29.032,0 0,4.868 z"
         id="path8493" />
    </clipPath>
    <clipPath
       clipPathUnits="userSpaceOnUse"
       id="clipPath8475">
      <path
         inkscape:connector-curvature="0"
         d="m 696.59,357.945 29.033,0 0,-4.868 -29.033,0 0,4.868 z"
         id="path8477" />
    </clipPath>
    <clipPath
       clipPathUnits="userSpaceOnUse"
       id="clipPath8427">
      <path
         inkscape:connector-curvature="0"
         d="m 757.841,361.512 9.131,0 0,-4.524 -9.131,0 0,4.524 z"
         id="path8429" />
    </clipPath>
    <clipPath
       clipPathUnits="userSpaceOnUse"
       id="clipPath8411">
      <path
         inkscape:connector-curvature="0"
         d="m 700.867,363.229 9.131,0 0,-4.523 -9.131,0 0,4.523 z"
         id="path8413" />
    </clipPath>
    <clipPath
       clipPathUnits="userSpaceOnUse"
       id="clipPath8387">
      <path
         inkscape:connector-curvature="0"
         d="m 706.625,343.738 8.683,0 0,-8.43 -8.683,0 0,8.43 z"
         id="path8389" />
    </clipPath>
    <clipPath
       clipPathUnits="userSpaceOnUse"
       id="clipPath8363">
      <path
         inkscape:connector-curvature="0"
         d="m 756.491,343.738 8.686,0 0,-8.43 -8.686,0 0,8.43 z"
         id="path8365" />
    </clipPath>
    <clipPath
       clipPathUnits="userSpaceOnUse"
       id="clipPath9385">
      <path
         inkscape:connector-curvature="0"
         d="m 728.646,494.4 11.552,0 0,-10.832 -11.552,0 0,10.832 z"
         id="path9387" />
    </clipPath>
    <clipPath
       clipPathUnits="userSpaceOnUse"
       id="clipPath9361">
      <path
         inkscape:connector-curvature="0"
         d="m 712.264,545.327 12.094,0 0,-1.999 -12.094,0 0,1.999 z"
         id="path9363" />
    </clipPath>
    <clipPath
       clipPathUnits="userSpaceOnUse"
       id="clipPath9345">
      <path
         inkscape:connector-curvature="0"
         d="m 727.5,562.475 4.604,0 0,-12.135 -4.604,0 0,12.135 z"
         id="path9347" />
    </clipPath>
    <clipPath
       clipPathUnits="userSpaceOnUse"
       id="clipPath9321">
      <path
         inkscape:connector-curvature="0"
         d="m 625.355,549.184 22.79,0 0,-27.585 -22.79,0 0,27.585 z"
         id="path9323" />
    </clipPath>
    <clipPath
       clipPathUnits="userSpaceOnUse"
       id="clipPath9305">
      <path
         inkscape:connector-curvature="0"
         d="m 623.557,511.403 22.788,0 0,-27.585 -22.788,0 0,27.585 z"
         id="path9307" />
    </clipPath>
    <clipPath
       clipPathUnits="userSpaceOnUse"
       id="clipPath9281">
      <path
         inkscape:connector-curvature="0"
         d="m 719.04,498.16 18.476,0 0,-2.943 -18.476,0 0,2.943 z"
         id="path9283" />
    </clipPath>
    <clipPath
       clipPathUnits="userSpaceOnUse"
       id="clipPath9265">
      <path
         inkscape:connector-curvature="0"
         d="m 755.055,541.736 79.167,0 0,-16.978 -79.167,0 0,16.978 z"
         id="path9267" />
    </clipPath>
    <clipPath
       clipPathUnits="userSpaceOnUse"
       id="clipPath9249">
      <path
         inkscape:connector-curvature="0"
         d="m 754.415,523.354 79.732,0 0,-11.069 -79.732,0 0,11.069 z"
         id="path9251" />
    </clipPath>
    <clipPath
       clipPathUnits="userSpaceOnUse"
       id="clipPath9233">
      <path
         inkscape:connector-curvature="0"
         d="m 754.415,505.279 76.329,0 0,-8.582 -76.329,0 0,8.582 z"
         id="path9235" />
    </clipPath>
    <clipPath
       clipPathUnits="userSpaceOnUse"
       id="clipPath9217">
      <path
         inkscape:connector-curvature="0"
         d="m 745.46,533.234 4.47,0 0,-5.145 -4.47,0 0,5.145 z"
         id="path9219" />
    </clipPath>
    <clipPath
       clipPathUnits="userSpaceOnUse"
       id="clipPath9201">
      <path
         inkscape:connector-curvature="0"
         d="m 745.666,524.691 5.302,0 0,-5.874 -5.302,0 0,5.874 z"
         id="path9203" />
    </clipPath>
    <clipPath
       clipPathUnits="userSpaceOnUse"
       id="clipPath9185">
      <path
         inkscape:connector-curvature="0"
         d="m 746.865,517.504 4.922,0 0,-4.874 -4.922,0 0,4.874 z"
         id="path9187" />
    </clipPath>
    <clipPath
       clipPathUnits="userSpaceOnUse"
       id="clipPath9169">
      <path
         inkscape:connector-curvature="0"
         d="m 747.417,511.044 4.151,0 0,-5.132 -4.151,0 0,5.132 z"
         id="path9171" />
    </clipPath>
    <clipPath
       clipPathUnits="userSpaceOnUse"
       id="clipPath9153">
      <path
         inkscape:connector-curvature="0"
         d="m 748.057,503.99 4.289,0 0,-4.545 -4.289,0 0,4.545 z"
         id="path9155" />
    </clipPath>
    <clipPath
       clipPathUnits="userSpaceOnUse"
       id="clipPath9137">
      <path
         inkscape:connector-curvature="0"
         d="m 719.867,528.384 4.774,0 0,-28.874 -4.774,0 0,28.874 z"
         id="path9139" />
    </clipPath>
    <clipPath
       clipPathUnits="userSpaceOnUse"
       id="clipPath9121">
      <path
         inkscape:connector-curvature="0"
         d="m 667.082,518.611 2.77,0 0,-4.955 -2.77,0 0,4.955 z"
         id="path9123" />
    </clipPath>
    <clipPath
       clipPathUnits="userSpaceOnUse"
       id="clipPath9105">
      <path
         inkscape:connector-curvature="0"
         d="m 631.867,530.879 9.827,0 0,-2.229 -9.827,0 0,2.229 z"
         id="path9107" />
    </clipPath>
    <clipPath
       clipPathUnits="userSpaceOnUse"
       id="clipPath9089">
      <path
         inkscape:connector-curvature="0"
         d="m 630.932,502.465 9.828,0 0,-2.229 -9.828,0 0,2.229 z"
         id="path9091" />
    </clipPath>
    <clipPath
       clipPathUnits="userSpaceOnUse"
       id="clipPath9073">
      <path
         inkscape:connector-curvature="0"
         d="m 602.935,497.8 13.854,0 0,-6.374 -13.854,0 0,6.374 z"
         id="path9075" />
    </clipPath>
    <clipPath
       clipPathUnits="userSpaceOnUse"
       id="clipPath9057">
      <path
         inkscape:connector-curvature="0"
         d="m 643.993,517.345 3.818,0 0,-2.357 -3.818,0 0,2.357 z"
         id="path9059" />
    </clipPath>
    <clipPath
       clipPathUnits="userSpaceOnUse"
       id="clipPath9041">
      <path
         inkscape:connector-curvature="0"
         d="m 588.144,565.83 35.26,0 0,-56.445 -35.26,0 0,56.445 z"
         id="path9043" />
    </clipPath>
    <clipPath
       clipPathUnits="userSpaceOnUse"
       id="clipPath9025">
      <path
         inkscape:connector-curvature="0"
         d="m 589.896,558.389 49.061,0 0,-49.004 -49.061,0 0,49.004 z"
         id="path9027" />
    </clipPath>
    <clipPath
       clipPathUnits="userSpaceOnUse"
       id="clipPath9009">
      <path
         inkscape:connector-curvature="0"
         d="m 589.896,509.385 38.021,0 0,-26.764 -38.021,0 0,26.764 z"
         id="path9011" />
    </clipPath>
    <clipPath
       clipPathUnits="userSpaceOnUse"
       id="clipPath8989">
      <path
         inkscape:connector-curvature="0"
         d="m 603.928,521.262 23.035,0 0,-12.924 -23.035,0 0,12.924 z"
         id="path8991" />
    </clipPath>
    <clipPath
       clipPathUnits="userSpaceOnUse"
       id="clipPath8973">
      <path
         inkscape:connector-curvature="0"
         d="m 670.275,541.992 9.711,0 0,-19.077 -9.711,0 0,19.077 z"
         id="path8975" />
    </clipPath>
    <clipPath
       clipPathUnits="userSpaceOnUse"
       id="clipPath8941">
      <path
         inkscape:connector-curvature="0"
         d="m 647.578,540.046 6.185,0 0,-11.132 -6.185,0 0,11.132 z"
         id="path8943" />
    </clipPath>
    <clipPath
       clipPathUnits="userSpaceOnUse"
       id="clipPath8925">
      <path
         inkscape:connector-curvature="0"
         d="m 647.578,503.988 6.185,0 0,-11.133 -6.185,0 0,11.133 z"
         id="path8927" />
    </clipPath>
    <clipPath
       clipPathUnits="userSpaceOnUse"
       id="clipPath8901">
      <path
         inkscape:connector-curvature="0"
         d="m 580.311,575.032 43.954,0 0,-25.151 -43.954,0 0,25.151 z"
         id="path8903" />
    </clipPath>
  </defs>
  <sodipodi:namedview
     id="base"
     pagecolor="#ffffff"
     bordercolor="#666666"
     borderopacity="1.0"
     inkscape:pageopacity="0.0"
     inkscape:pageshadow="2"
     inkscape:zoom="0.98994949"
     inkscape:cx="-31.2464"
     inkscape:cy="244.92669"
     inkscape:document-units="px"
     inkscape:current-layer="layer1"
     showgrid="false"
     fit-margin-top="0"
     fit-margin-left="0"
     fit-margin-right="0"
     fit-margin-bottom="0"
     inkscape:window-width="1366"
     inkscape:window-height="706"
     inkscape:window-x="-8"
     inkscape:window-y="-8"
     inkscape:window-maximized="1" />
  <metadata
     id="metadata14760">
    <rdf:RDF>
      <cc:Work
         rdf:about="">
        <dc:format>image/svg+xml</dc:format>
        <dc:type
           rdf:resource="http://purl.org/dc/dcmitype/StillImage" />
        <dc:title></dc:title>
      </cc:Work>
    </rdf:RDF>
  </metadata>
  <g
     inkscape:label="Layer 1"
     inkscape:groupmode="layer"
     id="layer1"
     transform="translate(-634.69483,-477.43826)">
    <g
       id="g8865"
       transform="matrix(0,1.25,1.25,0,792.19027,555.16052)">
      <path
         d="M 0,0 C 27.5,0 49.792,-15.288 49.792,-34.146 49.792,-53.005 27.5,-68.293 0,-68.293 c -27.499,0 -49.79,15.288 -49.79,34.147 C -49.79,-15.288 -27.499,0 0,0"
         style="fill:#f9dec5;fill-opacity:1;fill-rule:nonzero;stroke:none"
         id="path8867"
         inkscape:connector-curvature="0" />
    </g>
    <g
       id="g8869"
       transform="matrix(0,1.25,1.25,0,727.34901,564.29876)">
      <path
         d="m 0,0 c 4.099,0 7.421,-1.31 7.421,-2.924 0,-1.615 -3.322,-2.924 -7.421,-2.924 -4.099,0 -7.421,1.309 -7.421,2.924 C -7.421,-1.31 -4.099,0 0,0"
         style="fill:#000000;fill-opacity:1;fill-rule:nonzero;stroke:none"
         id="path8871"
         inkscape:connector-curvature="0" />
    </g>
    <g
       id="g8873"
       transform="matrix(0,1.25,1.25,0,762.62852,566.29952)">
      <path
         d="m 0,0 c 4.099,0 7.421,-1.309 7.421,-2.923 0,-1.615 -3.322,-2.924 -7.421,-2.924 -4.1,0 -7.422,1.309 -7.422,2.924 C -7.422,-1.309 -4.1,0 0,0"
         style="fill:#000000;fill-opacity:1;fill-rule:nonzero;stroke:none"
         id="path8875"
         inkscape:connector-curvature="0" />
    </g>
    <g
       id="g8877"
       transform="matrix(0,1.25,1.25,0,728.09851,550.15076)">
      <path
         d="M 0,0 C 0,0 -4.798,-3.448 -3.448,-14.842"
         style="fill:none;stroke:#000000;stroke-width:1;stroke-linecap:butt;stroke-linejoin:miter;stroke-miterlimit:4;stroke-opacity:1;stroke-dasharray:none"
         id="path8879"
         inkscape:connector-curvature="0" />
    </g>
    <g
       id="g8881"
       transform="matrix(0,1.25,1.25,0,751.52264,551.46176)">
      <path
         d="M 0,0 C 0,0 -5.697,4.947 -4.798,14.993"
         style="fill:none;stroke:#000000;stroke-width:1;stroke-linecap:butt;stroke-linejoin:miter;stroke-miterlimit:4;stroke-opacity:1;stroke-dasharray:none"
         id="path8883"
         inkscape:connector-curvature="0" />
    </g>
    <g
       id="g8885"
       transform="matrix(0,1.25,1.25,0,759.17889,561.60338)">
      <path
         d="M 0,0 C 1.009,-0.244 1.701,-0.956 1.548,-1.592 1.396,-2.227 0.455,-2.544 -0.555,-2.3 -1.562,-2.056 -2.254,-1.346 -2.101,-0.71 -1.948,-0.074 -1.008,0.242 0,0"
         style="fill:#ffffff;fill-opacity:1;fill-rule:nonzero;stroke:none"
         id="path8887"
         inkscape:connector-curvature="0" />
    </g>
    <g
       id="g8889"
       transform="matrix(0,1.25,1.25,0,724.53651,559.33289)">
      <path
         d="M 0,0 C 1.009,-0.244 1.701,-0.955 1.548,-1.59 1.396,-2.226 0.455,-2.543 -0.555,-2.299 -1.562,-2.056 -2.254,-1.344 -2.102,-0.71 -1.948,-0.074 -1.009,0.243 0,0"
         style="fill:#ffffff;fill-opacity:1;fill-rule:nonzero;stroke:none"
         id="path8891"
         inkscape:connector-curvature="0" />
    </g>
    <g
       id="g8893"
       transform="matrix(0,1.25,1.25,0,785.34102,486.55214)">
      <path
         d="m 0,0 c 0,0 1.405,48.657 67.97,40.859 0,0 -16.223,-0.031 -26.986,-10.794 0,0 15.292,2.102 31.484,-8.394 0,0 -14.772,1.686 -21.928,-1.557 C 50.54,20.114 22.28,-10.877 0,0"
         style="fill:#42210b;fill-opacity:1;fill-rule:nonzero;stroke:none"
         id="path8895"
         inkscape:connector-curvature="0" />
    </g>
    <g
       transform="matrix(0,1.25,1.25,0,95.395824,-230.60361)"
       id="g8897">
      <g
         id="g8899" />
      <g
         id="g8905">
        <g
           clip-path="url(#clipPath8901)"
           id="g8907"
           style="opacity:0.5">
          <g
             transform="translate(580.3105,549.916)"
             id="g8909">
            <path
               d="M 0,0 C 0,0 6.248,35.384 43.954,22.154 43.954,22.154 4.259,-1.063 0,0"
               style="fill:#000000;fill-opacity:1;fill-rule:nonzero;stroke:none"
               id="path8911"
               inkscape:connector-curvature="0" />
          </g>
        </g>
      </g>
    </g>
    <g
       id="g8913"
       transform="matrix(0,1.25,1.25,0,803.59289,576.17001)">
      <path
         d="m 0,0 c 6.596,-4.133 10.266,-10.157 8.2,-13.454 -2.068,-3.296 -9.089,-2.622 -15.684,1.513 -6.597,4.133 -10.267,10.158 -8.2,13.456 C -13.617,4.811 -6.597,4.134 0,0"
         style="fill:#f9dec5;fill-opacity:1;fill-rule:nonzero;stroke:none"
         id="path8915"
         inkscape:connector-curvature="0" />
    </g>
    <g
       id="g8917"
       transform="matrix(0,1.25,1.25,0,730.15901,591.37876)">
      <path
         d="M 0,0 C 0,0 6.746,7.196 -1.125,19.79 -1.125,19.79 17.541,8.771 0,0"
         style="fill:#ed1c24;fill-opacity:1;fill-rule:nonzero;stroke:none"
         id="path8919"
         inkscape:connector-curvature="0" />
    </g>
    <g
       transform="matrix(0,1.25,1.25,0,95.395824,-230.60361)"
       id="g8921">
      <g
         id="g8923" />
      <g
         id="g8929">
        <g
           clip-path="url(#clipPath8925)"
           id="g8931"
           style="opacity:0.5">
          <g
             transform="translate(650.6709,503.9883)"
             id="g8933">
            <path
               d="m 0,0 c 1.707,0 3.092,-2.492 3.092,-5.566 0,-3.075 -1.385,-5.567 -3.092,-5.567 -1.708,0 -3.093,2.492 -3.093,5.567 C -3.093,-2.492 -1.708,0 0,0"
               style="fill:#d4145a;fill-opacity:1;fill-rule:nonzero;stroke:none"
               id="path8935"
               inkscape:connector-curvature="0" />
          </g>
        </g>
      </g>
    </g>
    <g
       transform="matrix(0,1.25,1.25,0,95.395824,-230.60361)"
       id="g8937">
      <g
         id="g8939" />
      <g
         id="g8945">
        <g
           clip-path="url(#clipPath8941)"
           id="g8947"
           style="opacity:0.5">
          <g
             transform="translate(650.6709,540.0459)"
             id="g8949">
            <path
               d="m 0,0 c 1.707,0 3.092,-2.493 3.092,-5.565 0,-3.076 -1.385,-5.567 -3.092,-5.567 -1.708,0 -3.093,2.491 -3.093,5.567 C -3.093,-2.493 -1.708,0 0,0"
               style="fill:#d4145a;fill-opacity:1;fill-rule:nonzero;stroke:none"
               id="path8951"
               inkscape:connector-curvature="0" />
          </g>
        </g>
      </g>
    </g>
    <g
       id="g8953"
       transform="matrix(0,1.25,1.25,0,784.64877,668.77388)">
      <path
         d="m 0,0 c 0,0 18.516,3.179 24.171,-12.256 5.656,-15.435 7.755,-29.422 10.903,-33.101 l 6.747,0 c 0,0 -8.902,24.32 -8.902,40.02 0,0 2.067,17.481 -33.929,16.746"
         style="fill:#f9dec5;fill-opacity:1;fill-rule:nonzero;stroke:none"
         id="path8955"
         inkscape:connector-curvature="0" />
    </g>
    <g
       id="g8957"
       transform="matrix(0,1.25,1.25,0,772.88615,605.5915)">
      <path
         d="m 0,0 11.501,0 c 0,0 7.674,13.269 14.6,21.589 6.925,8.32 34.444,3.148 34.444,3.148 -3.559,-4.272 0.748,-21.589 0.748,-21.589 l -7.488,0 c 13.103,-15.741 25.832,-8.995 25.832,-8.995 32.57,30.584 81.988,19.79 81.988,19.79 11.98,-25.186 -2.621,-69.263 -2.621,-69.263 -12.729,8.095 -90.6,11.244 -90.6,11.244 -16.095,0 -24.707,-7.196 -35.938,-2.699 -11.232,4.498 -19.843,28.785 -19.843,28.785 L 7.741,-19.077 C 7.741,-19.077 5.413,-6.34 0,0"
         style="fill:#f9dec5;fill-opacity:1;fill-rule:nonzero;stroke:none"
         id="path8959"
         inkscape:connector-curvature="0" />
    </g>
    <g
       id="g8961"
       transform="matrix(0,1.25,1.25,0,751.68377,594.34751)">
      <path
         d="m 0,0 c -1.854,1.593 -3.5,2.57 -3.5,2.57 7.871,-12.593 1.125,-19.79 1.125,-19.79 1.163,0.582 2.155,1.174 3.017,1.772 C 3.199,-9.958 1.501,-3.683 0,0"
         style="fill:#ffffff;fill-opacity:1;fill-rule:nonzero;stroke:none"
         id="path8963"
         inkscape:connector-curvature="0" />
    </g>
    <g
       id="g8965"
       transform="matrix(0,1.25,1.25,0,773.54777,620.35338)">
      <path
         d="m 0,0 c 0.995,-4.061 1.853,-10.422 0.995,-19.015 1.278,-3.429 9.365,-24.167 19.661,-28.29 11.232,-4.497 19.843,2.7 35.939,2.7 0,0 77.871,-3.149 90.599,-11.245 0,0 14.602,44.078 2.621,69.264 0,0 -49.418,10.794 -81.988,-19.79 0,0 -12.728,-6.746 -25.832,8.995 l 7.488,0 c 0,0 -4.306,17.317 -0.748,21.589 0,0 -27.518,5.172 -34.444,-3.148 C 8.174,13.709 1.481,2.516 0,0"
         style="fill:#fbb03b;fill-opacity:1;fill-rule:nonzero;stroke:none"
         id="path8967"
         inkscape:connector-curvature="0" />
    </g>
    <g
       transform="matrix(0,1.25,1.25,0,95.395824,-230.60361)"
       id="g8969">
      <g
         id="g8971" />
      <g
         id="g8977">
        <g
           clip-path="url(#clipPath8973)"
           id="g8979"
           style="opacity:0.19999701">
          <g
             transform="translate(670.2754,541.9922)"
             id="g8981">
            <path
               d="m 0,0 c 5.726,-6.34 8.188,-19.077 8.188,-19.077 l 1.523,0.321 C 8.927,-11.616 6.604,-4.68 4.733,0 L 0,0 z"
               style="fill:#000000;fill-opacity:1;fill-rule:nonzero;stroke:none"
               id="path8983"
               inkscape:connector-curvature="0" />
          </g>
        </g>
      </g>
    </g>
    <g
       transform="matrix(0,1.25,1.25,0,95.395824,-230.60361)"
       id="g8985">
      <g
         id="g8987" />
      <g
         id="g8993">
        <g
           clip-path="url(#clipPath8989)"
           id="g8995"
           style="opacity:0.19999701">
          <g
             transform="translate(606.9912,508.4512)"
             id="g8997">
            <path
               d="m 0,0 c 0,0 9.413,-0.807 19.972,12.264 0,0 -11.098,-8.875 -17.17,-10.044 0,0 7.066,5.647 9.606,10.591 C 12.408,12.811 -11.328,-1.52 0,0"
               style="fill:#f15a24;fill-opacity:1;fill-rule:nonzero;stroke:none"
               id="path8999"
               inkscape:connector-curvature="0" />
          </g>
        </g>
      </g>
    </g>
    <g
       id="g9001"
       transform="matrix(0,1.25,1.25,0,701.86076,526.34951)">
      <path
         d="m 0,0 c -0.229,0.554 20.241,-8.244 27.736,1.051 0,0 -24.59,-0.002 -33.433,13.792 0,0 19.041,-3.149 27.735,19.04 0,0 -9.967,-11.392 -19.635,-11.971 C 2.152,21.897 1.901,21.89 1.649,21.89 c -9.894,0 22.638,15.891 28.036,37.48 0,0 -15.294,-16.941 -25.488,-17.541 0,0 22.197,18.295 28.792,29.69 0,0 2.243,5.841 23.532,0.745 0,0 -16.492,6.895 -26.086,5.096 0,0 11.094,1.799 17.391,1.799 0,0 -88.753,39.279 -74.66,-53.671 0,0 -7.798,3.6 -12.295,14.094 0,0 5.387,-22.436 20.44,-24.925 0,0 3.247,-21.552 26.035,-25.149 0,0 -3.598,1.496 -7.346,10.492"
         style="fill:#42210b;fill-opacity:1;fill-rule:nonzero;stroke:none"
         id="path9003"
         inkscape:connector-curvature="0" />
    </g>
    <g
       transform="matrix(0,1.25,1.25,0,95.395824,-230.60361)"
       id="g9005">
      <g
         id="g9007" />
      <g
         id="g9013">
        <g
           clip-path="url(#clipPath9009)"
           id="g9015"
           style="opacity:0.30000299">
          <g
             transform="translate(589.8965,509.3848)"
             id="g9017">
            <path
               d="M 0,0 C 0,0 4.529,-28.602 38.021,-26.67 38.021,-26.67 8.32,-28.335 0,0"
               style="fill:#000000;fill-opacity:1;fill-rule:nonzero;stroke:none"
               id="path9019"
               inkscape:connector-curvature="0" />
          </g>
        </g>
      </g>
    </g>
    <g
       transform="matrix(0,1.25,1.25,0,95.395824,-230.60361)"
       id="g9021">
      <g
         id="g9023" />
      <g
         id="g9029">
        <g
           clip-path="url(#clipPath9025)"
           id="g9031"
           style="opacity:0.30000299">
          <g
             transform="translate(589.8965,509.3848)"
             id="g9033">
            <path
               d="M 0,0 C 0,0 4.571,57.734 49.061,47.87 49.061,47.87 10.569,57.795 0,0"
               style="fill:#000000;fill-opacity:1;fill-rule:nonzero;stroke:none"
               id="path9035"
               inkscape:connector-curvature="0" />
          </g>
        </g>
      </g>
    </g>
    <g
       transform="matrix(0,1.25,1.25,0,95.395824,-230.60361)"
       id="g9037">
      <g
         id="g9039" />
      <g
         id="g9045">
        <g
           clip-path="url(#clipPath9041)"
           id="g9047"
           style="opacity:0.30000299">
          <g
             transform="translate(589.8965,509.3848)"
             id="g9049">
            <path
               d="M 0,0 C 0,0 -8.546,45.876 33.508,56.445 33.508,56.445 -11.02,50.148 0,0"
               style="fill:#000000;fill-opacity:1;fill-rule:nonzero;stroke:none"
               id="path9051"
               inkscape:connector-curvature="0" />
          </g>
        </g>
      </g>
    </g>
    <g
       transform="matrix(0,1.25,1.25,0,95.395824,-230.60361)"
       id="g9053">
      <g
         id="g9055" />
      <g
         id="g9061">
        <g
           clip-path="url(#clipPath9057)"
           id="g9063"
           style="opacity:0.19999701">
          <g
             transform="translate(644.2402,516.9883)"
             id="g9065">
            <path
               d="M 0,0 C 0.396,-0.699 0.96,-2.158 2.104,-1.986 2.977,-1.855 3.588,-0.354 3.57,0.354 2.891,0.408 2.535,-0.189 1.857,-0.247 1.11,-0.312 0.415,0.446 -0.247,-0.123"
               style="fill:#f15a24;fill-opacity:1;fill-rule:nonzero;stroke:none"
               id="path9067"
               inkscape:connector-curvature="0" />
          </g>
        </g>
      </g>
    </g>
    <g
       transform="matrix(0,1.25,1.25,0,95.395824,-230.60361)"
       id="g9069">
      <g
         id="g9071" />
      <g
         id="g9077">
        <g
           clip-path="url(#clipPath9073)"
           id="g9079"
           style="opacity:0.19999701">
          <g
             transform="translate(611.2939,491.8359)"
             id="g9081">
            <path
               d="M 0,0 C -2.727,0.27 -6.805,3.726 -8.359,5.964 -6.332,5.225 -4.155,4.05 -1.998,3.28 0.386,2.43 3.023,0.43 5.495,0.292 3.857,-1.136 0.227,-0.027 -1.618,0.485"
               style="fill:#f15a24;fill-opacity:1;fill-rule:nonzero;stroke:none"
               id="path9083"
               inkscape:connector-curvature="0" />
          </g>
        </g>
      </g>
    </g>
    <g
       transform="matrix(0,1.25,1.25,0,95.395824,-230.60361)"
       id="g9085">
      <g
         id="g9087" />
      <g
         id="g9093">
        <g
           clip-path="url(#clipPath9089)"
           id="g9095"
           style="opacity:0.19999701">
          <g
             transform="translate(635.8457,502.4648)"
             id="g9097">
            <path
               d="m 0,0 c 2.715,0 4.914,-0.498 4.914,-1.113 0,-0.616 -2.199,-1.116 -4.914,-1.116 -2.714,0 -4.914,0.5 -4.914,1.116 C -4.914,-0.498 -2.714,0 0,0"
               style="fill:#ffffff;fill-opacity:1;fill-rule:nonzero;stroke:none"
               id="path9099"
               inkscape:connector-curvature="0" />
          </g>
        </g>
      </g>
    </g>
    <g
       transform="matrix(0,1.25,1.25,0,95.395824,-230.60361)"
       id="g9101">
      <g
         id="g9103" />
      <g
         id="g9109">
        <g
           clip-path="url(#clipPath9105)"
           id="g9111"
           style="opacity:0.19999701">
          <g
             transform="translate(636.7803,530.8789)"
             id="g9113">
            <path
               d="m 0,0 c 2.715,0 4.914,-0.499 4.914,-1.114 0,-0.615 -2.199,-1.115 -4.914,-1.115 -2.714,0 -4.913,0.5 -4.913,1.115 C -4.913,-0.499 -2.714,0 0,0"
               style="fill:#ffffff;fill-opacity:1;fill-rule:nonzero;stroke:none"
               id="path9115"
               inkscape:connector-curvature="0" />
          </g>
        </g>
      </g>
    </g>
    <g
       transform="matrix(0,1.25,1.25,0,95.395824,-230.60361)"
       id="g9117">
      <g
         id="g9119" />
      <g
         id="g9125">
        <g
           clip-path="url(#clipPath9121)"
           id="g9127"
           style="opacity:0.19999701">
          <g
             transform="translate(667.4961,513.6563)"
             id="g9129">
            <path
               d="M 0,0 C 0.053,0.105 0.241,0.168 0.382,0.332 0.717,0.721 0.684,1.755 0.655,2.244 0.606,3.146 0.077,4.198 -0.414,4.914 0.396,5.209 1.854,3.842 2.175,3.158 2.442,2.589 2.425,1.494 2.042,0.98 1.563,0.339 0.497,0.39 -0.186,0.187"
               style="fill:#f15a24;fill-opacity:1;fill-rule:nonzero;stroke:none"
               id="path9131"
               inkscape:connector-curvature="0" />
          </g>
        </g>
      </g>
    </g>
    <g
       transform="matrix(0,1.25,1.25,0,95.395824,-230.60361)"
       id="g9133">
      <g
         id="g9135" />
      <g
         id="g9141">
        <g
           clip-path="url(#clipPath9137)"
           id="g9143"
           style="opacity:0.19999701">
          <g
             transform="translate(720.1289,499.5098)"
             id="g9145">
            <path
               d="M 0,0 C 0,0 5.813,5.395 -0.262,28.874 -0.262,28.874 10.301,2.697 0,0"
               style="fill:#f15a24;fill-opacity:1;fill-rule:nonzero;stroke:none"
               id="path9147"
               inkscape:connector-curvature="0" />
          </g>
        </g>
      </g>
    </g>
    <g
       transform="matrix(0,1.25,1.25,0,95.395824,-230.60361)"
       id="g9149">
      <g
         id="g9151" />
      <g
         id="g9157">
        <g
           clip-path="url(#clipPath9153)"
           id="g9159"
           style="opacity:0.19999701">
          <g
             transform="translate(750.5654,499.6582)"
             id="g9161">
            <path
               d="M 0,0 C 0.116,0.021 0.222,-0.004 0.313,-0.074 -0.631,0.578 -3.208,1.493 -2.329,2.891 -1.734,3.836 0.792,4.42 1.78,4.32 1.079,3.58 0.149,2.85 0.099,1.687 0.074,1.123 1.06,-0.637 -0.1,-0.119"
               style="fill:#f15a24;fill-opacity:1;fill-rule:nonzero;stroke:none"
               id="path9163"
               inkscape:connector-curvature="0" />
          </g>
        </g>
      </g>
    </g>
    <g
       transform="matrix(0,1.25,1.25,0,95.395824,-230.60361)"
       id="g9165">
      <g
         id="g9167" />
      <g
         id="g9173">
        <g
           clip-path="url(#clipPath9169)"
           id="g9175"
           style="opacity:0.19999701">
          <g
             transform="translate(751.5684,505.9199)"
             id="g9177">
            <path
               d="m 0,0 c -0.77,-0.104 -3.145,0.851 -3.74,1.539 -0.634,0.732 -0.473,1.692 0.056,2.438 0.255,0.359 1.274,1.461 1.787,1.062 C -1.363,4.622 -2.064,2.645 -1.99,1.947 -1.287,1.574 0.048,1.502 -0.016,0.262 -0.124,0.17 -0.471,0.02 -0.601,0.004 -0.695,0.099 -0.764,0.219 -0.803,0.361"
               style="fill:#f15a24;fill-opacity:1;fill-rule:nonzero;stroke:none"
               id="path9179"
               inkscape:connector-curvature="0" />
          </g>
        </g>
      </g>
    </g>
    <g
       transform="matrix(0,1.25,1.25,0,95.395824,-230.60361)"
       id="g9181">
      <g
         id="g9183" />
      <g
         id="g9189">
        <g
           clip-path="url(#clipPath9185)"
           id="g9191"
           style="opacity:0.19999701">
          <g
             transform="translate(750.165,512.7852)"
             id="g9193">
            <path
               d="m 0,0 c -0.728,-0.232 -3.034,0.78 -3.3,1.92 0.863,0.893 1.794,2.049 2.898,2.514 C 0.223,4.697 1.727,5.082 1.616,3.981 1.518,3.017 -0.204,2.741 -0.213,1.805 -0.222,0.992 1.06,0.826 0.866,-0.103 0.292,-0.125 -0.38,-0.354 -0.703,0.36"
               style="fill:#f15a24;fill-opacity:1;fill-rule:nonzero;stroke:none"
               id="path9195"
               inkscape:connector-curvature="0" />
          </g>
        </g>
      </g>
    </g>
    <g
       transform="matrix(0,1.25,1.25,0,95.395824,-230.60361)"
       id="g9197">
      <g
         id="g9199" />
      <g
         id="g9205">
        <g
           clip-path="url(#clipPath9201)"
           id="g9207"
           style="opacity:0.19999701">
          <g
             transform="translate(750.9678,519.167)"
             id="g9209">
            <path
               d="m 0,0 c -1.493,0.05 -4.78,-0.311 -5.302,1.896 0.81,0.69 1.175,1.765 2.064,2.464 0.762,0.602 1.585,1.216 2.526,1.161 -0.235,-1.058 -0.864,-1.913 -1.082,-2.966 0.461,-0.33 0.925,-0.966 1.093,-1.592 0.149,-0.55 0.146,-1.834 -0.605,-1.084"
               style="fill:#f15a24;fill-opacity:1;fill-rule:nonzero;stroke:none"
               id="path9211"
               inkscape:connector-curvature="0" />
          </g>
        </g>
      </g>
    </g>
    <g
       transform="matrix(0,1.25,1.25,0,95.395824,-230.60361)"
       id="g9213">
      <g
         id="g9215" />
      <g
         id="g9221">
        <g
           clip-path="url(#clipPath9217)"
           id="g9223"
           style="opacity:0.19999701">
          <g
             transform="translate(749.5645,528.5596)"
             id="g9225">
            <path
               d="m 0,0 c 0.064,-0.176 0.124,-0.283 0.095,-0.469 -0.756,-0.046 -2.892,0.694 -3.49,1.312 -0.411,0.422 -0.379,1.033 -0.709,1.556 0.73,0.725 1.565,1.031 2.426,1.452 0.632,0.306 1.353,1.131 2.043,0.703 C -0.035,3.749 -1.193,2.915 -1.205,2.043 -1.22,1.181 0.317,0.33 0,-0.362"
               style="fill:#f15a24;fill-opacity:1;fill-rule:nonzero;stroke:none"
               id="path9227"
               inkscape:connector-curvature="0" />
          </g>
        </g>
      </g>
    </g>
    <g
       transform="matrix(0,1.25,1.25,0,95.395824,-230.60361)"
       id="g9229">
      <g
         id="g9231" />
      <g
         id="g9237">
        <g
           clip-path="url(#clipPath9233)"
           id="g9239"
           style="opacity:0.19999701">
          <g
             transform="translate(754.415,503.1816)"
             id="g9241">
            <path
               d="M 0,0 C 0,0 50.089,4.85 76.329,-6.484 76.329,-6.484 32.117,7.21 0,0"
               style="fill:#f15a24;fill-opacity:1;fill-rule:nonzero;stroke:none"
               id="path9243"
               inkscape:connector-curvature="0" />
          </g>
        </g>
      </g>
    </g>
    <g
       transform="matrix(0,1.25,1.25,0,95.395824,-230.60361)"
       id="g9245">
      <g
         id="g9247" />
      <g
         id="g9253">
        <g
           clip-path="url(#clipPath9249)"
           id="g9255"
           style="opacity:0.19999701">
          <g
             transform="translate(754.415,512.2852)"
             id="g9257">
            <path
               d="M 0,0 C 0,0 52.785,17.801 79.732,2.266 79.732,2.266 52.066,23.508 0,0"
               style="fill:#f15a24;fill-opacity:1;fill-rule:nonzero;stroke:none"
               id="path9259"
               inkscape:connector-curvature="0" />
          </g>
        </g>
      </g>
    </g>
    <g
       transform="matrix(0,1.25,1.25,0,95.395824,-230.60361)"
       id="g9261">
      <g
         id="g9263" />
      <g
         id="g9269">
        <g
           clip-path="url(#clipPath9265)"
           id="g9271"
           style="opacity:0.19999701">
          <g
             transform="translate(755.0547,524.7578)"
             id="g9273">
            <path
               d="M 0,0 C 0,0 51.09,23.902 79.167,11.599 79.167,11.599 49.909,29.498 0,0"
               style="fill:#f15a24;fill-opacity:1;fill-rule:nonzero;stroke:none"
               id="path9275"
               inkscape:connector-curvature="0" />
          </g>
        </g>
      </g>
    </g>
    <g
       transform="matrix(0,1.25,1.25,0,95.395824,-230.60361)"
       id="g9277">
      <g
         id="g9279" />
      <g
         id="g9285">
        <g
           clip-path="url(#clipPath9281)"
           id="g9287"
           style="opacity:0.19999701">
          <g
             transform="translate(719.04,495.2168)"
             id="g9289">
            <path
               d="M 0,0 C 0,0 11.781,3.961 18.476,2.693 18.476,2.693 2.34,0.525 0,0"
               style="fill:#f15a24;fill-opacity:1;fill-rule:nonzero;stroke:none"
               id="path9291"
               inkscape:connector-curvature="0" />
          </g>
        </g>
      </g>
    </g>
    <g
       id="g9293"
       transform="matrix(0,1.25,1.25,0,749.77939,621.59726)">
      <path
         d="m 0,0 c 0,0 4.917,-8.734 13.145,-13.736 0,0 -1.979,17.907 -14.14,32.751 0,0 8.181,-18.421 0.995,-19.015"
         style="fill:#f15a24;fill-opacity:1;fill-rule:nonzero;stroke:none"
         id="path9295"
         inkscape:connector-curvature="0" />
    </g>
    <g
       id="g9297"
       transform="matrix(0,1.25,1.25,0,734.65002,563.08413)">
      <path
         d="m 0,0 c 6.293,0 11.395,-6.175 11.395,-13.792 0,-7.617 -5.102,-13.793 -11.395,-13.793 -6.292,0 -11.394,6.176 -11.394,13.793 C -11.394,-6.175 -6.292,0 0,0 z"
         style="fill:none;stroke:#f7931e;stroke-width:1;stroke-linecap:butt;stroke-linejoin:miter;stroke-miterlimit:4;stroke-opacity:1;stroke-dasharray:none"
         id="path9299"
         inkscape:connector-curvature="0" />
    </g>
    <g
       transform="matrix(0,1.25,1.25,0,95.395824,-230.60361)"
       id="g9301">
      <g
         id="g9303" />
      <g
         id="g9309">
        <g
           clip-path="url(#clipPath9305)"
           id="g9311"
           style="opacity:0.30000299">
          <g
             transform="translate(634.9502,511.4033)"
             id="g9313">
            <path
               d="m 0,0 c 6.293,0 11.395,-6.175 11.395,-13.792 0,-7.617 -5.102,-13.793 -11.395,-13.793 -6.292,0 -11.394,6.176 -11.394,13.793 C -11.394,-6.175 -6.292,0 0,0"
               style="fill:#ffffff;fill-opacity:1;fill-rule:nonzero;stroke:none"
               id="path9315"
               inkscape:connector-curvature="0" />
          </g>
        </g>
      </g>
    </g>
    <g
       transform="matrix(0,1.25,1.25,0,95.395824,-230.60361)"
       id="g9317">
      <g
         id="g9319" />
      <g
         id="g9325">
        <g
           clip-path="url(#clipPath9321)"
           id="g9327"
           style="opacity:0.30000299">
          <g
             transform="translate(636.749,549.1836)"
             id="g9329">
            <path
               d="m 0,0 c 6.293,0 11.396,-6.176 11.396,-13.793 0,-7.616 -5.103,-13.792 -11.396,-13.792 -6.291,0 -11.394,6.176 -11.394,13.792 C -11.394,-6.176 -6.291,0 0,0"
               style="fill:#ffffff;fill-opacity:1;fill-rule:nonzero;stroke:none"
               id="path9331"
               inkscape:connector-curvature="0" />
          </g>
        </g>
      </g>
    </g>
    <g
       id="g9333"
       transform="matrix(0,1.25,1.25,0,781.98277,565.4315)">
      <path
         d="m 0,0 c 6.293,0 11.396,-6.177 11.396,-13.793 0,-7.616 -5.103,-13.794 -11.396,-13.794 -6.291,0 -11.394,6.178 -11.394,13.794 C -11.394,-6.177 -6.291,0 0,0 z"
         style="fill:none;stroke:#f7931e;stroke-width:1;stroke-linecap:butt;stroke-linejoin:miter;stroke-miterlimit:4;stroke-opacity:1;stroke-dasharray:none"
         id="path9335"
         inkscape:connector-curvature="0" />
    </g>
    <g
       id="g9337"
       transform="matrix(0,1.25,1.25,0,734.65002,563.08413)">
      <path
         d="M 0,0 C 0,0 -4.691,4.832 0.822,10.343"
         style="fill:none;stroke:#f7931e;stroke-width:1;stroke-linecap:butt;stroke-linejoin:miter;stroke-miterlimit:4;stroke-opacity:1;stroke-dasharray:none"
         id="path9339"
         inkscape:connector-curvature="0" />
    </g>
    <g
       transform="matrix(0,1.25,1.25,0,95.395824,-230.60361)"
       id="g9341">
      <g
         id="g9343" />
      <g
         id="g9349">
        <g
           clip-path="url(#clipPath9345)"
           id="g9351"
           style="opacity:0.19999701">
          <g
             transform="translate(728.165,562.3271)"
             id="g9353">
            <path
               d="m 0,0 c -1.722,-4.017 0.396,-10.057 0.813,-11.171 1.021,-0.196 2.072,-0.464 3.126,-0.816 C 2.172,-7.163 2.764,-2.484 3.256,-0.183 2.348,-0.057 1.402,0.053 0.415,0.147 L 0,0 z"
               style="fill:#000000;fill-opacity:1;fill-rule:nonzero;stroke:none"
               id="path9355"
               inkscape:connector-curvature="0" />
          </g>
        </g>
      </g>
    </g>
    <g
       transform="matrix(0,1.25,1.25,0,95.395824,-230.60361)"
       id="g9357">
      <g
         id="g9359" />
      <g
         id="g9365">
        <g
           clip-path="url(#clipPath9361)"
           id="g9367"
           style="opacity:0.19999701">
          <g
             transform="translate(712.2725,543.6055)"
             id="g9369">
            <path
               d="m 0,0 c -0.229,-0.099 3.784,2.412 10.488,1.535 0,0 0.6,-0.813 1.598,-1.812 0,0 -8.748,1.713 -12.086,0.277"
               style="fill:#f15a24;fill-opacity:1;fill-rule:nonzero;stroke:none"
               id="path9371"
               inkscape:connector-curvature="0" />
          </g>
        </g>
      </g>
    </g>
    <g
       id="g9373"
       transform="matrix(0,1.25,1.25,0,715.61076,672.98163)">
      <path
         d="m 0,0 c -0.39,-1.273 1.938,-4.107 2.862,-5.516 1.279,-1.956 2.107,-3.814 3.336,-5.767 3.69,-5.859 5.101,-12.807 8.193,-18.977 2.684,-5.357 5.819,-12.625 3.216,-18.706 -1.279,-2.991 -4.091,-4.631 -2.979,-8.323 1.813,1.201 3.245,2.941 5.294,3.735 1.89,0.732 1.507,-4.841 1.379,-5.412 -0.301,-1.347 -1.928,-4.972 -0.015,-5.7 1.643,-0.625 4.744,3.318 5.631,4.391 1.939,2.345 3.47,5.462 2.81,8.646 -0.647,3.121 -3.087,5.43 -3.785,8.55 -0.841,3.756 -0.861,7.657 -1.237,11.481 -0.945,9.635 -2.309,18.136 -7.052,26.556 C 15.884,-1.895 14.83,1.309 13.212,4.461 11.554,7.698 9.081,7.379 5.82,5.432 3.215,3.876 0.348,2.525 0,0"
         style="fill:#f9dec5;fill-opacity:1;fill-rule:nonzero;stroke:none"
         id="path9375"
         inkscape:connector-curvature="0" />
    </g>
    <g
       id="g9377"
       transform="matrix(0,1.25,1.25,0,714.41689,668.19638)">
      <path
         d="m 0,0 c 0,0 1.709,-0.174 8.459,-10.402 0,0 4.296,6.34 11.661,10.023 0,0 0.871,1.689 -8.463,9.742 C 11.657,9.363 2.588,4.881 0,0"
         style="fill:#fbb03b;fill-opacity:1;fill-rule:nonzero;stroke:none"
         id="path9379"
         inkscape:connector-curvature="0" />
    </g>
    <g
       transform="matrix(0,1.25,1.25,0,95.395824,-230.60361)"
       id="g9381">
      <g
         id="g9383" />
      <g
         id="g9389">
        <g
           clip-path="url(#clipPath9385)"
           id="g9391"
           style="opacity:0.19999701">
          <g
             transform="translate(729.9258,483.5684)"
             id="g9393">
            <path
               d="M 0,0 C 1.792,4.061 7.504,7.027 10.272,8.424 9.863,9.223 9.475,10.023 9.118,10.825 L 9.104,10.832 C 3.993,9.563 -1.238,2.252 -1.279,2.194 -1.064,1.822 -0.853,1.452 -0.615,1.075 -0.394,0.725 -0.206,0.357 0,0"
               style="fill:#000000;fill-opacity:1;fill-rule:nonzero;stroke:none"
               id="path9395"
               inkscape:connector-curvature="0" />
          </g>
        </g>
      </g>
    </g>
  </g>
</svg>
